<svg xmlns="http://www.w3.org/2000/svg" xmlns:xlink="http://www.w3.org/1999/xlink" width="400" height="400" viewBox="0 0 400 400">
<rect data-name="background" width="100%" height="100%" fill="none"/><g data-name="icon" fill="#2563eb" data="id:984453" transform="translate(10.467857841986495,137.1066680151143) scale(0.22558361716469233)">
    

<g>
	
		<rect x="76.5" y="76.5" transform="matrix(0.7071 -0.7071 0.7071 0.7071 -101.3944 244.8154)" class="st0" width="336.6" height="336.6" style="fill: none; stroke: {{COLOR}}; stroke-width: 13.5999; stroke-linecap: round; stroke-linejoin: round; stroke-miterlimit: 67.9997;"/>
	<path d="M244.8,410.7L78.9,244.8L244.8,78.9l165.9,165.9L244.8,410.7z M151.1,244.8l93.7,93.7l93.7-93.7l-93.7-93.8L151.1,244.8z"/>
	<path class="st1" d="M244.8,410.7L78.9,244.8L244.8,78.9l165.9,165.9L244.8,410.7z M151.1,244.8l93.7,93.7l93.7-93.7l-93.7-93.8   L151.1,244.8z" style="fill: none; stroke: {{COLOR}}; stroke-width: 13.6001; stroke-linecap: round; stroke-linejoin: round; stroke-miterlimit: 68.0004;"/>
	<rect x="229.5" y="229.5" transform="matrix(0.7072 -0.707 0.707 0.7072 -101.4169 244.7354)" width="30.6" height="30.6"/>
	
		<rect x="229.5" y="229.5" transform="matrix(0.7072 -0.707 0.707 0.7072 -101.4169 244.7354)" class="st0" width="30.6" height="30.6" style="fill: none; stroke: {{COLOR}}; stroke-width: 13.5999; stroke-linecap: round; stroke-linejoin: round; stroke-miterlimit: 67.9997;"/>
	<polygon points="244.8,482.8 448.8,278.8 482.8,312.8 244.8,550.8 6.8,312.8 40.8,278.8  "/>
	<polygon class="st1" points="244.8,482.8 448.8,278.8 482.8,312.8 244.8,550.8 6.8,312.8 40.8,278.8  " style="fill: none; stroke: {{COLOR}}; stroke-width: 13.6001; stroke-linecap: round; stroke-linejoin: round; stroke-miterlimit: 68.0004;"/>
</g>

    </g><g data-name="business_name" fill="#2563eb" data="id:249" transform="translate(140.97284803489987,129.22894031379087) scale(2.582885336068258)"><path d="M22.88,17.96c-2.16-0.48-5.76-1.4-8.36-1.36c-0.48,8.72-0.52,14.52,0,23.4c-1.6,0.32-2.92-0.56-4.84,0c0.4-8.88,0.48-14.68,0-23.4c-2.36-0.04-6.2,0.88-8.36,1.36c0.64-1.36,0-2.48,0.36-3.68c4,0.2,8,0.68,10.4,0.68c2.28,0,6.36-0.44,10.44-0.68c0.36,1.2-0.24,2.44,0.36,3.68z M26.96,40c0.52-8.4,0.56-16.52,0-25.2c3.12-0.04,6.52-0.72,8.44-0.72c8.32,0,13.56,5.16,13.56,13.12c0,8.28-5.56,13.52-13.16,13.52c-1.76,0-5.92-0.76-8.84-0.72z M31.84,15.96c-0.16,7.68-0.16,15.04,0,22.76c1.44,0.16,2.64,0.24,3.44,0.24c3.64,0,8.4-2.04,8.4-11.64s-4.8-11.6-8.68-11.6c-0.8,0-1.92,0.08-3.16,0.24z M65,26.12c4.44,2.8,8.32,4.6,8.32,8.16c0,4.08-4.44,6.44-9.96,6.44c-4.52,0-8.28-1.6-9.88-3l2.36-6.28l0.44,0.08c-1.4,2.48,3.84,7.56,7.88,7.56c2.76,0,4.4-1.4,4.4-3.48c0-2.76-2.16-4.96-6.44-7.72c-3.4-2.24-7.32-3.84-7.32-7.6c0-3.72,3.08-6.2,8.72-6.2c4.4,0,8.48,1.6,9.72,3l-2.8,5.28l-0.44-0.16c1.52-1.88-3-6.48-6.48-6.48c-3.24,0-4.12,1.72-4.12,3.36c0,2.44,1.4,4.28,5.6,7.04z M87.32,26.12c4.44,2.8,8.32,4.6,8.32,8.16c0,4.08-4.44,6.44-9.96,6.44c-4.52,0-8.28-1.6-9.88-3l2.36-6.28l0.44,0.08c-1.4,2.48,3.84,7.56,7.88,7.56c2.76,0,4.4-1.4,4.4-3.48c0-2.76-2.16-4.96-6.44-7.72c-3.4-2.24-7.32-3.84-7.32-7.6c0-3.72,3.08-6.2,8.72-6.2c4.4,0,8.48,1.6,9.72,3l-2.8,5.28l-0.44-0.16c1.52-1.88-3-6.48-6.48-6.48c-3.24,0-4.12,1.72-4.12,3.36c0,2.44,1.4,4.28,5.6,7.04z"/></g></svg>